<?xml version="1.0" encoding="utf-8"?>
<svg version="1.1" xmlns:xlink="http://www.w3.org/1999/xlink" width="12px" height="15px" xmlns="http://www.w3.org/2000/svg">
  <g transform="matrix(1 0 0 1 -476 -88 )">
    <path d="M 2.02772277227723 13.7326732673267  L 2.87524752475248 13.7326732673267  L 3.5960396039604 12.8316831683168  L 1.73465346534653 10.5049504950495  L 1.01386138613861 11.4059405940594  L 1.01386138613861 12.4653465346535  L 2.02772277227723 12.4653465346535  L 2.02772277227723 13.7326732673267  Z M 6.96237623762376 4.71287128712871  C 6.9993399339934 4.66666666666667  7.01782178217822 4.61056105610561  7.01782178217822 4.54455445544555  C 7.01782178217822 4.3993399339934  6.95973597359736 4.32673267326733  6.84356435643564 4.32673267326733  C 6.79075907590759 4.32673267326733  6.74587458745875 4.34983498349835  6.70891089108911 4.3960396039604  L 2.41584158415842 9.76237623762376  C 2.37887788778878 9.80858085808581  2.36039603960396 9.86468646864686  2.36039603960396 9.93069306930693  C 2.36039603960396 10.0759075907591  2.41848184818482 10.1485148514851  2.53465346534653 10.1485148514851  C 2.58745874587459 10.1485148514851  2.63234323432343 10.1254125412541  2.66930693069307 10.0792079207921  L 6.96237623762376 4.71287128712871  Z M 0 10.8811881188119  L 6.59009900990099 2.64356435643564  L 9.88514851485149 6.76237623762376  L 3.2950495049505 15  L 0 15  L 0 10.8811881188119  Z M 11.7069306930693 2.69306930693069  C 11.9023102310231 2.95049504950495  12 3.25082508250825  12 3.59405940594059  C 12 3.94389438943894  11.9023102310231 4.24092409240924  11.7069306930693 4.48514851485149  L 10.3920792079208 6.12871287128713  L 7.0970297029703 2.00990099009901  L 8.41188118811881 0.376237623762375  C 8.6019801980198 0.125412541254124  8.83960396039604 0  9.12475247524753 0  C 9.40462046204621 0  9.64488448844885 0.125412541254124  9.84554455445545 0.376237623762375  L 11.7069306930693 2.69306930693069  Z " fill-rule="nonzero" fill="#000000" stroke="none" transform="matrix(1 0 0 1 476 88 )" />
  </g>
</svg>