<?xml version="1.0" encoding="utf-8"?>
<svg version="1.1" xmlns:xlink="http://www.w3.org/1999/xlink" width="27px" height="17px" xmlns="http://www.w3.org/2000/svg">
  <defs>
    <mask fill="white" id="clip45">
      <path d="M 0 13.6  L 0 3.4  C 0 1.49599999999999  1.14230769230769 0  2.59615384615385 0  L 14.8722527472527 0  L 24.4038461538462 0  C 25.8576923076923 0  27 1.49599999999999  27 3.4  L 27 13.6  C 27 15.504  25.8576923076923 17  24.4038461538462 17  L 2.59615384615385 17  C 1.14230769230769 17  0 15.504  0 13.6  Z " fill-rule="evenodd" />
    </mask>
  </defs>
  <g transform="matrix(1 0 0 1 -1812 -217 )">
    <path d="M 0 13.6  L 0 3.4  C 0 1.49599999999999  1.14230769230769 0  2.59615384615385 0  L 14.8722527472527 0  L 24.4038461538462 0  C 25.8576923076923 0  27 1.49599999999999  27 3.4  L 27 13.6  C 27 15.504  25.8576923076923 17  24.4038461538462 17  L 2.59615384615385 17  C 1.14230769230769 17  0 15.504  0 13.6  Z " fill-rule="nonzero" fill="#ffffff" stroke="none" transform="matrix(1 0 0 1 1812 217 )" />
    <path d="M 0 13.6  L 0 3.4  C 0 1.49599999999999  1.14230769230769 0  2.59615384615385 0  L 14.8722527472527 0  L 24.4038461538462 0  C 25.8576923076923 0  27 1.49599999999999  27 3.4  L 27 13.6  C 27 15.504  25.8576923076923 17  24.4038461538462 17  L 2.59615384615385 17  C 1.14230769230769 17  0 15.504  0 13.6  Z " stroke-width="2" stroke="#797979" fill="none" transform="matrix(1 0 0 1 1812 217 )" mask="url(#clip45)" />
  </g>
</svg>