<?xml version="1.0" encoding="utf-8"?>
<svg version="1.1" xmlns:xlink="http://www.w3.org/1999/xlink" width="131px" height="16px" xmlns="http://www.w3.org/2000/svg">
  <defs>
    <mask fill="white" id="clip2">
      <path d="M 0 11  L 0 5  C 0 2.19999999999999  2.19999999999999 0  5 0  L 41.1639344262295 0  L 51 0  C 51 0  74.4972677595628 0  84.6065573770492 0  C 99.4972677595628 0  126 0  126 0  C 128.8 0  131 2.19999999999999  131 5  L 131 11  C 131 13.8  128.8 16  126 16  L 5 16  C 2.19999999999999 16  0 13.8  0 11  Z " fill-rule="evenodd" />
    </mask>
  </defs>
  <g transform="matrix(1 0 0 1 -228 -225 )">
    <path d="M 0 11  L 0 5  C 0 2.19999999999999  2.19999999999999 0  5 0  L 41.1639344262295 0  L 51 0  C 51 0  74.4972677595628 0  84.6065573770492 0  C 99.4972677595628 0  126 0  126 0  C 128.8 0  131 2.19999999999999  131 5  L 131 11  C 131 13.8  128.8 16  126 16  L 5 16  C 2.19999999999999 16  0 13.8  0 11  Z " fill-rule="nonzero" fill="#ffffff" stroke="none" transform="matrix(1 0 0 1 228 225 )" />
    <path d="M 0 11  L 0 5  C 0 2.19999999999999  2.19999999999999 0  5 0  L 41.1639344262295 0  L 51 0  C 51 0  74.4972677595628 0  84.6065573770492 0  C 99.4972677595628 0  126 0  126 0  C 128.8 0  131 2.19999999999999  131 5  L 131 11  C 131 13.8  128.8 16  126 16  L 5 16  C 2.19999999999999 16  0 13.8  0 11  Z " stroke-width="2" stroke="#797979" fill="none" transform="matrix(1 0 0 1 228 225 )" mask="url(#clip2)" />
  </g>
</svg>