<?xml version="1.0" encoding="utf-8"?>
<svg version="1.1" xmlns:xlink="http://www.w3.org/1999/xlink" width="131px" height="16px" xmlns="http://www.w3.org/2000/svg">
  <defs>
    <mask fill="white" id="clip43">
      <path d="M 0 11  L 0 5  C 0 2.19999999999999  2.19999999999999 0  5 0  L 49.9130434782609 0  L 77.7391304347826 0  L 126 0  C 128.8 0  131 2.19999999999999  131 5  L 131 11  C 131 13.8  128.8 16  126 16  L 5 16  C 2.19999999999999 16  0 13.8  0 11  Z " fill-rule="evenodd" />
    </mask>
  </defs>
  <g transform="matrix(1 0 0 1 -508 -251 )">
    <path d="M 0 11  L 0 5  C 0 2.19999999999999  2.19999999999999 0  5 0  L 49.9130434782609 0  L 77.7391304347826 0  L 126 0  C 128.8 0  131 2.19999999999999  131 5  L 131 11  C 131 13.8  128.8 16  126 16  L 5 16  C 2.19999999999999 16  0 13.8  0 11  Z " fill-rule="nonzero" fill="#ffffff" stroke="none" transform="matrix(1 0 0 1 508 251 )" />
    <path d="M 0 11  L 0 5  C 0 2.19999999999999  2.19999999999999 0  5 0  L 49.9130434782609 0  L 77.7391304347826 0  L 126 0  C 128.8 0  131 2.19999999999999  131 5  L 131 11  C 131 13.8  128.8 16  126 16  L 5 16  C 2.19999999999999 16  0 13.8  0 11  Z " stroke-width="2" stroke="#797979" fill="none" transform="matrix(1 0 0 1 508 251 )" mask="url(#clip43)" />
  </g>
</svg>