<?xml version="1.0" encoding="utf-8"?>
<svg version="1.1" xmlns:xlink="http://www.w3.org/1999/xlink" width="15px" height="12px" xmlns="http://www.w3.org/2000/svg">
  <g transform="matrix(1 0 0 1 -344 -200 )">
    <path d="M 12.5195429945881 6.58806818181818  C 12.6398075766687 6.63352272727273  12.699939867709 6.71590909090909  12.699939867709 6.83522727272727  L 12.699939867709 9.54545454545455  C 12.699939867709 10.2215909090909  12.4458809380637 10.7997159090909  11.9377630787733 11.2798295454545  C 11.4296452194829 11.7599431818182  10.8177991581479 12  10.1022248947685 12  L 2.59771497294047 12  C 1.88214070956103 12  1.2702946482261 11.7599431818182  0.762176788935658 11.2798295454545  C 0.254058929645219 10.7997159090909  0 10.2215909090909  0 9.54545454545455  L 0 2.45454545454546  C 0 1.77840909090909  0.254058929645219 1.20028409090909  0.762176788935658 0.720170454545455  C 1.2702946482261 0.240056818181817  1.88214070956103 0  2.59771497294047 0  L 10.1022248947685 0  C 10.4810583283223 0  10.832832230908 0.0710227272727266  11.1575466025256 0.213068181818181  C 11.247745039086 0.252840909090908  11.3018641010222 0.318181818181818  11.3199037883343 0.409090909090909  C 11.3379434756464 0.505681818181818  11.3108839446783 0.588068181818181  11.2387251954299 0.65625  L 10.7967528562838 1.07386363636364  C 10.7366205652435 1.13068181818182  10.6674684305472 1.15909090909091  10.5892964521948 1.15909090909091  C 10.5712567648827 1.15909090909091  10.5441972339146 1.15340909090909  10.5081178592904 1.14204545454546  C 10.3698135898978 1.10795454545454  10.2345159350571 1.09090909090909  10.1022248947685 1.09090909090909  L 2.59771497294047 1.09090909090909  C 2.20084185207456 1.09090909090909  1.86109440769693 1.22443181818182  1.57847263980758 1.49147727272727  C 1.29585087191822 1.75852272727273  1.15453998797354 2.07954545454546  1.15453998797354 2.45454545454546  L 1.15453998797354 9.54545454545455  C 1.15453998797354 9.92045454545455  1.29585087191822 10.2414772727273  1.57847263980758 10.5085227272727  C 1.86109440769693 10.7755681818182  2.20084185207456 10.9090909090909  2.59771497294047 10.9090909090909  L 10.1022248947685 10.9090909090909  C 10.4990980156344 10.9090909090909  10.838845460012 10.7755681818182  11.1214672279014 10.5085227272727  C 11.4040889957907 10.2414772727273  11.5453998797354 9.92045454545455  11.5453998797354 9.54545454545455  L 11.5453998797354 7.38068181818182  C 11.5453998797354 7.30681818181818  11.5724594107035 7.24431818181818  11.6265784726398 7.19318181818182  L 12.2038484666266 6.64772727272727  C 12.2639807576669 6.59090909090909  12.3331328923632 6.5625  12.4113048707156 6.5625  C 12.4473842453397 6.5625  12.4834636199639 6.57102272727273  12.5195429945881 6.58806818181818  Z M 15 2.18181818181818  C 15 2.36931818181818  14.9278412507517 2.53125  14.783523752255 2.66761363636364  L 7.44137101623572 9.60511363636364  C 7.29705351773903 9.74147727272727  7.1256764882742 9.80965909090909  6.92723992784125 9.80965909090909  C 6.7288033674083 9.80965909090909  6.55742633794348 9.74147727272727  6.41310883944678 9.60511363636364  L 2.53457606734817 5.94034090909091  C 2.39025856885147 5.80397727272727  2.31809981960313 5.64204545454546  2.31809981960313 5.45454545454546  C 2.31809981960313 5.26704545454545  2.39025856885147 5.10511363636363  2.53457606734817 4.96875  L 3.52675886951293 4.03125  C 3.67107636800962 3.89488636363636  3.84245339747444 3.82670454545455  4.0408899579074 3.82670454545455  C 4.23932651834035 3.82670454545455  4.41070354780517 3.89488636363636  4.55502104630186 4.03125  L 6.92723992784125 6.27272727272727  L 12.7630787733013 0.758522727272728  C 12.907396271798 0.622159090909091  13.0787733012628 0.553977272727272  13.2772098616957 0.553977272727272  C 13.4756464221287 0.553977272727272  13.6470234515935 0.622159090909091  13.7913409500902 0.758522727272728  L 14.783523752255 1.69602272727273  C 14.9278412507517 1.83238636363636  15 1.99431818181818  15 2.18181818181818  Z " fill-rule="nonzero" fill="#000000" stroke="none" transform="matrix(1 0 0 1 344 200 )" />
  </g>
</svg>